<?xml version="1.0" encoding="UTF-8" standalone="no"?>
<svg
   xmlns:osb="http://www.openswatchbook.org/uri/2009/osb"
   xmlns:dc="http://purl.org/dc/elements/1.1/"
   xmlns:cc="http://creativecommons.org/ns#"
   xmlns:rdf="http://www.w3.org/1999/02/22-rdf-syntax-ns#"
   xmlns:svg="http://www.w3.org/2000/svg"
   xmlns="http://www.w3.org/2000/svg"
   xmlns:sodipodi="http://sodipodi.sourceforge.net/DTD/sodipodi-0.dtd"
   xmlns:inkscape="http://www.inkscape.org/namespaces/inkscape"
   id="svg8"
   version="1.1"
   viewBox="0 0 33.86624 33.86624"
   height="128"
   width="128"
   inkscape:version="1.0.1 (3bc2e813f5, 2020-09-07)"
   sodipodi:docname="logo.svg">
  <defs
     id="defs2">
    <linearGradient
       id="linearGradient837"
       osb:paint="solid">
      <stop
         style="stop-color:#000000;stop-opacity:1;"
         offset="0"
         id="stop835" />
    </linearGradient>
  </defs>
  <sodipodi:namedview
     id="base"
     pagecolor="#ffffff"
     bordercolor="#666666"
     borderopacity="1.0"
     inkscape:pageopacity="0"
     inkscape:pageshadow="2"
     inkscape:zoom="2"
     inkscape:cx="115.9316"
     inkscape:cy="53.079245"
     inkscape:document-units="px"
     inkscape:current-layer="g918"
     inkscape:document-rotation="0"
     showgrid="false"
     inkscape:window-width="1920"
     inkscape:window-height="1017"
     inkscape:window-x="-8"
     inkscape:window-y="-8"
     inkscape:window-maximized="1"
     units="px"
     height="793.70079px"
     inkscape:pagecheckerboard="true"
     borderlayer="true"
     inkscape:showpageshadow="true"
     showborder="true"
     showguides="false"
     inkscape:object-paths="true"
     inkscape:snap-intersection-paths="true"
     inkscape:snap-smooth-nodes="true"
     inkscape:snap-midpoints="true"
     inkscape:snap-object-midpoints="true" />
  <metadata
     id="metadata5">
    <rdf:RDF>
      <cc:Work
         rdf:about="">
        <dc:format>image/svg+xml</dc:format>
        <dc:type
           rdf:resource="http://purl.org/dc/dcmitype/StillImage" />
        <dc:title></dc:title>
      </cc:Work>
    </rdf:RDF>
  </metadata>
  <g
     inkscape:label="Layer 1"
     inkscape:groupmode="layer"
     id="layer1">
    <g
       id="g918"
       transform="matrix(1.0460025,0,0,1.0460025,-12.74072,-9.4514556)">
      <rect
         style="fill:#ff5444;fill-opacity:1;stroke:#010101;stroke-width:0.505888;stroke-linecap:round;stroke-linejoin:round"
         id="rect911"
         width="23.877594"
         height="23.877594"
         x="53.71085"
         y="14.422333"
         ry="2.9088554" />
      <path
         id="path850"
         style="fill:#ff5444;fill-opacity:1;stroke:#010101;stroke-width:0.447989;stroke-linecap:round;stroke-linejoin:round"
         d="m 68.629705,27.414778 a 8.077779,8.077779 0 0 0 2.707606,0.951136 8.077779,8.077779 0 0 0 2.598873,-0.0067 6.7966166,6.438902 30 0 0 3.65226,1.847361 6.7966166,6.438902 30 0 0 7.5565,-5.227222 6.7966166,6.438902 30 0 0 -4.96618,-7.4326 8.077779,8.077779 0 0 0 -6.26486,-5.129872 8.077779,8.077779 0 0 0 -2.613321,0.0041 6.7966166,6.438902 30 0 0 -3.640438,-1.845102 6.7966166,6.438902 30 0 0 -7.567344,5.212405 l -0.0035,0.0248 a 6.7966166,6.438902 30 0 0 4.968011,7.420539 8.077779,8.077779 0 0 0 3.572374,4.181191 z" />
      <path
         id="rect1542"
         style="fill:#ff5444;fill-opacity:1;stroke:none;stroke-width:0.591631;stroke-linecap:round;stroke-linejoin:round"
         d="m 17.808129,11.26194 c -1.884642,0 -3.40188,1.517238 -3.40188,3.401879 v 21.120775 c 0,1.884641 1.517238,3.401879 3.40188,3.401879 H 38.92948 c 1.884642,0 3.40188,-1.517238 3.40188,-3.401879 v -6.063066 a 7.9485807,7.5302368 30 0 1 -4.271416,-2.160263 9.4468887,9.4468887 0 0 1 -3.039621,0.0075 9.4468887,9.4468887 0 0 1 -3.166152,-1.112198 9.4468887,9.4468887 0 0 1 -4.177818,-4.889624 7.9485807,7.5302368 30 0 1 -5.810581,-8.678607 l 0.0047,-0.02889 a 7.9485807,7.5302368 30 0 1 0.422345,-1.59752 z" />
    </g>
  </g>
</svg>
