<?xml version="1.0" encoding="UTF-8" standalone="no"?>
<svg
   xmlns:osb="http://www.openswatchbook.org/uri/2009/osb"
   xmlns:dc="http://purl.org/dc/elements/1.1/"
   xmlns:cc="http://creativecommons.org/ns#"
   xmlns:rdf="http://www.w3.org/1999/02/22-rdf-syntax-ns#"
   xmlns:svg="http://www.w3.org/2000/svg"
   xmlns="http://www.w3.org/2000/svg"
   xmlns:sodipodi="http://sodipodi.sourceforge.net/DTD/sodipodi-0.dtd"
   xmlns:inkscape="http://www.inkscape.org/namespaces/inkscape"
   id="svg8"
   version="1.1"
   viewBox="0 0 16.93312 16.93312"
   height="64"
   width="64"
   inkscape:version="1.0.1 (3bc2e813f5, 2020-09-07)"
   sodipodi:docname="editing_icon.svg">
  <defs
     id="defs2">
    <linearGradient
       id="linearGradient837"
       osb:paint="solid">
      <stop
         style="stop-color:#000000;stop-opacity:1;"
         offset="0"
         id="stop835" />
    </linearGradient>
  </defs>
  <sodipodi:namedview
     id="base"
     pagecolor="#ffffff"
     bordercolor="#666666"
     borderopacity="1.0"
     inkscape:pageopacity="0"
     inkscape:pageshadow="2"
     inkscape:zoom="2"
     inkscape:cx="-67.242503"
     inkscape:cy="68.193582"
     inkscape:document-units="px"
     inkscape:current-layer="g918"
     inkscape:document-rotation="0"
     showgrid="false"
     inkscape:window-width="1920"
     inkscape:window-height="1017"
     inkscape:window-x="-8"
     inkscape:window-y="-8"
     inkscape:window-maximized="1"
     units="px"
     height="793.70079px"
     inkscape:pagecheckerboard="true"
     borderlayer="true"
     inkscape:showpageshadow="true"
     showborder="true"
     showguides="false" />
  <metadata
     id="metadata5">
    <rdf:RDF>
      <cc:Work
         rdf:about="">
        <dc:format>image/svg+xml</dc:format>
        <dc:type
           rdf:resource="http://purl.org/dc/dcmitype/StillImage" />
        <dc:title></dc:title>
      </cc:Work>
    </rdf:RDF>
  </metadata>
  <g
     inkscape:label="Layer 1"
     inkscape:groupmode="layer"
     id="layer1">
    <g
       id="g918"
       transform="matrix(1.0460025,0,0,1.0460025,-12.74072,-9.4514556)">
      <g
         id="g2057"
         transform="matrix(0.91292165,0,0,0.91292165,0.83779283,1.2870191)"
         style="fill:#ffffff;fill-opacity:1">
        <path
           id="rect2035"
           style="fill:#ffffff;fill-opacity:1;stroke:none;stroke-width:6.16497;stroke-linecap:round;stroke-linejoin:round"
           d="m 24.554332,10.159452 3.93511,3.935111 c 0.09697,0.09697 0.08072,0.269342 -0.03643,0.38649 l -0.437405,0.437406 c -0.117152,0.117153 -0.289524,0.133399 -0.386491,0.03643 l -3.935111,-3.93511 c -0.09697,-0.09697 -0.08072,-0.269342 0.03643,-0.386491 l 0.437407,-0.437406 c 0.117151,-0.117152 0.289522,-0.133399 0.38649,-0.03643 z m -0.407285,0.05722 4.285172,4.285173 -1.419576,1.419575 -4.285173,-4.285171 z m -1.823413,1.823347 -6.31767,6.31767 4.277322,4.277322 6.31767,-6.31767 z m -6.719809,6.722779 c -0.0013,3.58e-4 -0.0025,5.65e-4 -0.004,9.89e-4 l -1.571019,5.848342 5.848341,-1.571019 c 2.85e-4,-0.0016 2.12e-4,-0.0029 4.95e-4,-0.0045 z" />
      </g>
    </g>
  </g>
</svg>
