<?xml version="1.0" encoding="UTF-8" standalone="no"?>
<svg
   xmlns:osb="http://www.openswatchbook.org/uri/2009/osb"
   xmlns:dc="http://purl.org/dc/elements/1.1/"
   xmlns:cc="http://creativecommons.org/ns#"
   xmlns:rdf="http://www.w3.org/1999/02/22-rdf-syntax-ns#"
   xmlns:svg="http://www.w3.org/2000/svg"
   xmlns="http://www.w3.org/2000/svg"
   xmlns:sodipodi="http://sodipodi.sourceforge.net/DTD/sodipodi-0.dtd"
   xmlns:inkscape="http://www.inkscape.org/namespaces/inkscape"
   id="svg8"
   version="1.1"
   viewBox="0 0 25.39968 25.39968"
   height="96"
   width="96"
   inkscape:version="1.0.1 (3bc2e813f5, 2020-09-07)"
   sodipodi:docname="expressive_feature.svg">
  <defs
     id="defs2">
    <linearGradient
       id="linearGradient837"
       osb:paint="solid">
      <stop
         style="stop-color:#000000;stop-opacity:1;"
         offset="0"
         id="stop835" />
    </linearGradient>
  </defs>
  <sodipodi:namedview
     id="base"
     pagecolor="#ffffff"
     bordercolor="#666666"
     borderopacity="1.0"
     inkscape:pageopacity="0"
     inkscape:pageshadow="2"
     inkscape:zoom="5.6568542"
     inkscape:cx="46.392532"
     inkscape:cy="51.54545"
     inkscape:document-units="px"
     inkscape:current-layer="g2658"
     inkscape:document-rotation="0"
     showgrid="false"
     inkscape:window-width="1920"
     inkscape:window-height="1017"
     inkscape:window-x="-8"
     inkscape:window-y="-8"
     inkscape:window-maximized="1"
     units="px"
     height="793.70079px"
     inkscape:pagecheckerboard="true"
     borderlayer="true"
     inkscape:showpageshadow="true"
     showborder="true"
     showguides="false" />
  <metadata
     id="metadata5">
    <rdf:RDF>
      <cc:Work
         rdf:about="">
        <dc:format>image/svg+xml</dc:format>
        <dc:type
           rdf:resource="http://purl.org/dc/dcmitype/StillImage" />
        <dc:title></dc:title>
      </cc:Work>
    </rdf:RDF>
  </metadata>
  <g
     inkscape:label="Layer 1"
     inkscape:groupmode="layer"
     id="layer1">
    <g
       id="g918"
       transform="matrix(1.0460025,0,0,1.0460025,-12.74072,-9.4514556)">
      <g
         id="g2051"
         transform="matrix(0.67556049,0,0,0.67556049,13.017289,20.137287)">
        <path
           d="m 2.7248436,16.030824 c -0.07563,0.07563 -0.14949,0.120907 -0.221073,0.136083 -0.07184,0.01518 -0.262809,0.02656 -0.572665,0.03415 h -0.374357 v 0.52157 h 0.124701 c 0.128495,-0.02276 0.672831,-0.03415 1.633006,-0.03415 0.960175,0 1.504511,0.01138 1.633006,0.03415 h 0.124702 v -0.52157 h -0.374358 c -0.446193,-0.0073 -0.69939,-0.05287 -0.759843,-0.136084 -0.02276,-0.0301 -0.03415,-0.400663 -0.03415,-1.111436 v -1.07729 l 0.521571,-0.510441 a 21.131949,21.131949 0 0 0 0.521823,-0.498805 c 0.05286,-0.05287 0.09814,-0.09435 0.136084,-0.124702 l 0.986734,1.48554 c 0.589613,0.90731 0.926028,1.421545 1.009247,1.542452 0.02276,0.04528 0.03415,0.09081 0.03415,0.136084 0,0.19679 -0.174025,0.294933 -0.52157,0.294933 h -0.09081 v 0.52157 h 0.124701 c 0.158849,-0.02276 0.699137,-0.03415 1.621877,-0.03415 0.06804,0 0.170231,0.002 0.306315,0.0056 0.136084,0.0038 0.241814,0.0056 0.317445,0.0056 0.07538,0 0.172001,0.002 0.289115,0.0056 0.117113,0.0038 0.204125,0.0076 0.260785,0.01138 0.05666,0.0038 0.09258,0.0056 0.107754,0.0056 h 0.09081 v -0.52157 h -0.238273 c -0.317445,-0.0073 -0.544336,-0.04907 -0.68042,-0.124702 A 0.8086618,0.8086618 0 0 1 8.4289836,15.815451 L 7.1189866,13.8478 c -0.827886,-1.243725 -1.241955,-1.869255 -1.241955,-1.876844 0,-0.0073 0.336416,-0.336415 1.009246,-0.986734 0.672831,-0.650066 1.028218,-0.9940702 1.066159,-1.0320112 0.332622,-0.2721681 0.782609,-0.4234286 1.349456,-0.4535289 h 0.158849 V 8.9767225 h -0.06804 c -0.0076,0 -0.03415,0.00202 -0.07942,0.00556 -0.04528,0.00379 -0.109778,0.00759 -0.192744,0.011383 a 4.8034055,4.8034055 0 0 1 -0.215508,0.00556 c -0.05287,0 -0.13229,0.00202 -0.238273,0.00556 -0.105984,0.00379 -0.188949,0.00556 -0.249403,0.00556 -0.862033,0 -1.357297,-0.011382 -1.48554,-0.034147 h -0.113318 v 0.5215704 h 0.04528 l 0.0511,0.00556 0.06248,0.00556 c 0.211461,0.052865 0.317445,0.162643 0.317445,0.3288271 -0.01518,0.060707 -0.03035,0.1021888 -0.04528,0.1247008 -0.01518,0.03035 -0.574689,0.5860712 -1.678536,1.6671542 l -1.655771,1.610494 -0.01138,-1.75796 c 0,-1.179478 0.0038,-1.7766786 0.01138,-1.7918553 0.01518,-0.1284955 0.226891,-0.1927433 0.635142,-0.1927433 h 0.521571 V 8.9767225 h -0.124702 c -0.128748,0.022765 -0.673084,0.034147 -1.633006,0.034147 -0.960175,0 -1.504511,-0.011382 -1.633006,-0.034147 H 1.5567646 V 9.498293 h 0.374357 c 0.309856,0.00759 0.500829,0.018971 0.572665,0.034147 0.07184,0.015177 0.145442,0.060707 0.221073,0.1360838 z m 8.8338144,-4.26413 h 0.453529 v -0.06804 c 0.0073,-0.0301 0.01872,-0.120908 0.03415,-0.272168 0.06045,-0.808915 0.211461,-1.315562 0.453528,-1.5196876 0.18895,-0.1588488 0.445941,-0.2645793 0.771227,-0.3174446 0.07538,-0.00734 0.290885,-0.011382 0.646524,-0.011382 h 0.306315 c 0.173773,0 0.281527,0.00556 0.323263,0.016947 0.04148,0.011383 0.07361,0.051095 0.09637,0.1191366 0.0073,0.015177 0.01138,1.0699526 0.01138,3.1640756 v 3.130182 c -0.06071,0.08322 -0.155055,0.136083 -0.28355,0.158848 -0.272168,0.02277 -0.612378,0.03415 -1.020629,0.03415 h -0.34021 v 0.52157 h 0.147467 c 0.158848,-0.02276 0.854191,-0.03415 2.086787,-0.03415 1.232343,0 1.927939,0.01138 2.086788,0.03415 h 0.147466 v -0.52157 h -0.34021 c -0.408251,0 -0.748461,-0.01138 -1.020628,-0.03415 -0.128749,-0.02276 -0.223097,-0.07538 -0.283551,-0.158848 v -3.130182 c 0,-2.094123 0.0038,-3.1488989 0.01138,-3.1640756 0.02276,-0.068042 0.05464,-0.1077541 0.09637,-0.1191366 0.04148,-0.011382 0.149237,-0.016947 0.323262,-0.016947 h 0.306315 c 0.423428,0 0.714567,0.018971 0.873163,0.056659 0.287344,0.083219 0.495011,0.2041258 0.623759,0.362975 0.188949,0.2193022 0.309857,0.6955952 0.362975,1.4288802 0.01518,0.15126 0.02631,0.242067 0.03415,0.272168 v 0.06804 h 0.453529 v -0.06804 c 0,-0.01518 -0.0339,-0.445941 -0.10219,-1.292797 -0.06804,-0.8466045 -0.10598,-1.277621 -0.113315,-1.2927977 v -0.068295 h -6.929906 v 0.068042 c 0,0.015177 -0.03415,0.4461931 -0.102189,1.2927967 -0.06804,0.846856 -0.105984,1.277873 -0.113319,1.292797 z m 15.293244,4.955931 v -0.52157 h -0.09081 c -0.166437,-0.01518 -0.310109,-0.06425 -0.431016,-0.147467 -0.120908,-0.08322 -0.181361,-0.177566 -0.181361,-0.28355 0,-0.05287 0.0038,-0.08322 0.01138,-0.09081 0.0073,-0.02277 0.260785,-0.412045 0.759844,-1.168095 0.113319,-0.173772 0.211461,-0.327056 0.294933,-0.459346 0.08322,-0.13229 0.153031,-0.241814 0.20969,-0.328827 0.05666,-0.08676 0.10396,-0.156825 0.141649,-0.209691 0.03769,-0.05287 0.06425,-0.08676 0.07942,-0.102189 l 0.03415,-0.03415 0.419634,0.646524 a 130.04304,130.04304 0 0 1 0.827885,1.292797 c 0.272168,0.431016 0.408252,0.657654 0.408252,0.680419 0,0.05287 -0.07943,0.100419 -0.238274,0.141649 -0.158848,0.04173 -0.302521,0.06248 -0.431016,0.06248 h -0.06804 v 0.52157 h 0.124701 c 0.173773,-0.02276 0.725697,-0.03415 1.655771,-0.03415 0.839268,0 1.315562,0.01138 1.428881,0.03415 h 0.102442 v -0.52157 h -0.351592 c -0.294933,-0.0073 -0.495264,-0.02276 -0.600995,-0.04528 -0.105983,-0.02276 -0.188949,-0.06804 -0.249403,-0.136084 -0.02276,-0.02276 -0.421657,-0.638936 -1.196424,-1.848514 -0.775021,-1.209578 -1.162531,-1.821956 -1.162531,-1.837132 0,-0.0073 0.249403,-0.400663 0.748461,-1.179478 C 29.626692,10.36032 29.902654,9.9520688 29.925419,9.9295564 30.18241,9.664977 30.621015,9.5213049 31.24098,9.4985399 h 0.192744 V 8.9767225 h -0.09081 c -0.09081,0.022765 -0.506647,0.034147 -1.24752,0.034147 -0.877209,0 -1.364885,-0.011382 -1.463028,-0.034147 H 28.530177 V 9.498293 h 0.09081 c 0.234226,0.022765 0.408251,0.098395 0.52157,0.2268907 0.09814,0.098395 0.124702,0.1889491 0.07943,0.2721681 0,0.0076 -0.196791,0.3156742 -0.589613,0.9242572 -0.393327,0.608583 -0.593659,0.912874 -0.600994,0.912874 -0.01518,0 -0.247633,-0.353362 -0.697367,-1.060341 -0.449987,-0.706978 -0.674854,-1.0717233 -0.674854,-1.0944882 0.01518,-0.037689 0.102189,-0.077401 0.260785,-0.1191366 0.158849,-0.041483 0.302268,-0.062477 0.431016,-0.062477 h 0.05666 V 8.9767225 h -0.124702 c -0.166437,0.022765 -0.71836,0.034147 -1.655771,0.034147 -0.839268,0 -1.315561,-0.011382 -1.42888,-0.034147 H 24.096078 V 9.498293 h 0.385739 c 0.408252,0 0.680419,0.056659 0.816503,0.1702312 0.02276,0.022765 0.37031,0.5595118 1.043394,1.6104948 0.672831,1.050982 1.009246,1.583935 1.009246,1.599111 0,0.0076 -0.300497,0.472499 -0.901492,1.394986 a 689.60614,689.60614 0 0 1 -0.947022,1.451645 c -0.242067,0.294933 -0.69939,0.453529 -1.372221,0.476294 h -0.192996 v 0.52157 h 0.09081 c 0.09081,-0.02276 0.506394,-0.03415 1.247519,-0.03415 0.876957,0 1.364633,0.01138 1.463028,0.03415 z"
           id="path1458"
           style="stroke-width:0.252944" />
        <path
           d="m 11.101841,12.887742 h -0.867345 c -0.5726654,0 -0.8589974,-0.0028 -0.8589974,-0.0086 l 0.433799,-1.284196 0.4251984,-1.275597 0.169979,0.501841 a 159.16295,159.16295 0 0 1 0.433799,1.284196 z M 9.5454766,15.05623 v -0.391304 h -0.04249 c -0.124702,0 -0.242321,-0.02403 -0.352857,-0.07234 -0.110537,-0.04806 -0.182879,-0.109019 -0.216773,-0.182878 a 0.12419548,0.12419548 0 0 1 -0.02555,-0.07664 c 0,-0.03389 0.05666,-0.218291 0.169978,-0.552683 l 0.169978,-0.501841 h 1.9815634 l 0.204126,0.603778 c 0.136084,0.408251 0.204126,0.617942 0.204126,0.629324 0,0.101937 -0.198561,0.153031 -0.595178,0.153031 h -0.110536 v 0.391305 h 0.08499 c 0.08499,-0.01695 0.493241,-0.02555 1.224502,-0.02555 0.634889,0 0.995081,0.0086 1.08007,0.02555 h 0.07664 v -0.391305 h -0.25522 c -0.294933,-0.0056 -0.473511,-0.03693 -0.535735,-0.09359 a 0.31896232,0.31896232 0 0 1 -0.05944,-0.08499 c -0.130519,-0.402434 -0.469211,-1.41168 -1.016329,-3.027486 -0.547118,-1.6158064 -0.823585,-2.4264917 -0.82915,-2.4323094 -0.02276,-0.033389 -0.09081,-0.053118 -0.204379,-0.058936 h -0.07664 c -0.09081,0 -0.144684,0.022765 -0.161631,0.068042 -0.0058,0.00582 -0.154549,0.4436637 -0.4464464,1.3137914 a 4072.4759,4072.4759 0 0 1 -1.330991,3.958572 c -0.113572,0.221073 -0.374104,0.34021 -0.782356,0.357157 h -0.127484 v 0.391304 h 0.05944 c 0.06804,-0.01695 0.354375,-0.02555 0.858998,-0.02555 0.5499,0 0.875945,0.0086 0.977881,0.02555 z m 9.2918964,3.473933 c -0.07563,0.07563 -0.14949,0.120907 -0.221073,0.136083 -0.07184,0.01518 -0.262809,0.02656 -0.572665,0.03415 h -0.374357 v 0.52157 h 6.634467 v -0.03415 c 0.01518,-0.02276 0.09637,-0.527388 0.243838,-1.514123 0.147466,-0.986734 0.224867,-1.491357 0.232455,-1.514122 v -0.03415 H 24.32651 v 0.03415 c -0.0076,0.01518 -0.02656,0.117366 -0.05666,0.306315 -0.06804,0.453529 -0.155054,0.82055 -0.260785,1.100053 -0.128748,0.347798 -0.315674,0.606813 -0.561283,0.776791 -0.245861,0.170231 -0.587841,0.28178 -1.026446,0.334645 -0.105984,0.0076 -0.499059,0.01138 -1.179478,0.01138 h -0.578483 c -0.347798,0 -0.544335,-0.01872 -0.589612,-0.05666 -0.02276,-0.01518 -0.03794,-0.04148 -0.04528,-0.07942 -0.0076,-0.01518 -0.01138,-0.532953 -0.01138,-1.553582 v -1.519687 h 0.612377 c 0.49147,0.0076 0.793991,0.03035 0.90731,0.06804 0.211461,0.06071 0.355386,0.16846 0.431016,0.323262 0.07538,0.155055 0.120908,0.391304 0.136084,0.708749 v 0.226891 h 0.453529 V 13.630889 H 22.10389 v 0.226891 c -0.01518,0.317445 -0.06071,0.553947 -0.136084,0.708749 -0.07563,0.155055 -0.219302,0.262809 -0.431016,0.323262 -0.113319,0.03794 -0.41584,0.06071 -0.90731,0.06804 H 20.017103 V 13.58561 c 0,-0.922233 0.0038,-1.390938 0.01138,-1.406368 0.02276,-0.07538 0.06804,-0.117113 0.136084,-0.124701 0.06045,-0.01518 0.468705,-0.02276 1.224755,-0.02276 0.438351,0 0.695595,0.0038 0.771226,0.01138 0.619965,0.03794 1.056546,0.187179 1.309996,0.447964 0.253197,0.260785 0.425199,0.74669 0.516006,1.45721 0.01518,0.136084 0.02631,0.215508 0.03415,0.238273 v 0.04528 h 0.453529 v -0.04528 c 0,-0.0073 -0.05287,-0.44594 -0.158849,-1.315561 l -0.158849,-1.315562 v -0.04528 h -6.487253 v 0.521571 h 0.374357 c 0.309856,0.0076 0.500829,0.01897 0.572665,0.03415 0.07184,0.01518 0.145443,0.06071 0.221073,0.136084 z"
           id="path1460"
           style="stroke-width:0.252944" />
      </g>
      <g
         id="g2658"
         transform="matrix(0.28184468,0,0,0.28184468,16.981925,9.1465081)">
        <g
           id="g3247"
           transform="translate(0,-2.0624471)">
          <rect
             width="50.082901"
             height="29.847385"
             x="1.0004655"
             y="4.038734"
             ry="2.5294394"
             stroke="#000000"
             stroke-width="2.52944"
             fill="none"
             id="rect2065" />
          <path
             d="M 7.3240642,27.562522 V 10.362333 h 5.0588788 l 5.058879,6.323599 5.058879,-6.323599 h 5.058879 v 17.200189 h -5.058879 v -9.864814 l -5.058879,6.323598 -5.058879,-6.323598 v 9.864814 z m 31.6179928,0 -7.588318,-8.347151 h 5.058879 v -8.853038 h 5.058879 v 8.853038 h 5.058879 z"
             id="path2067"
             style="stroke-width:0.252944" />
        </g>
      </g>
      <path
         id="path835"
         style="fill:none;stroke:#000000;stroke-width:0.787244;stroke-linecap:round;stroke-linejoin:round;stroke-miterlimit:4;stroke-dasharray:none;stroke-opacity:1"
         d="M 26.298701,21.784381 H 22.3447 m 1.977001,-1.977 v 3.954001" />
    </g>
  </g>
</svg>
