<?xml version="1.0" encoding="UTF-8" standalone="no"?>
<svg
   xmlns:osb="http://www.openswatchbook.org/uri/2009/osb"
   xmlns:dc="http://purl.org/dc/elements/1.1/"
   xmlns:cc="http://creativecommons.org/ns#"
   xmlns:rdf="http://www.w3.org/1999/02/22-rdf-syntax-ns#"
   xmlns:svg="http://www.w3.org/2000/svg"
   xmlns="http://www.w3.org/2000/svg"
   xmlns:sodipodi="http://sodipodi.sourceforge.net/DTD/sodipodi-0.dtd"
   xmlns:inkscape="http://www.inkscape.org/namespaces/inkscape"
   id="svg8"
   version="1.1"
   viewBox="0 0 211.664 105.832"
   height="400"
   width="800"
   inkscape:version="1.0.1 (3bc2e813f5, 2020-09-07)"
   sodipodi:docname="hero_dark.svg">
  <defs
     id="defs2">
    <linearGradient
       id="linearGradient837"
       osb:paint="solid">
      <stop
         style="stop-color:#000000;stop-opacity:1;"
         offset="0"
         id="stop835" />
    </linearGradient>
  </defs>
  <sodipodi:namedview
     id="base"
     pagecolor="#ffffff"
     bordercolor="#666666"
     borderopacity="1.0"
     inkscape:pageopacity="0"
     inkscape:pageshadow="2"
     inkscape:zoom="0.5"
     inkscape:cx="911.58622"
     inkscape:cy="715.17838"
     inkscape:document-units="px"
     inkscape:current-layer="g918"
     inkscape:document-rotation="0"
     showgrid="false"
     inkscape:window-width="1920"
     inkscape:window-height="1017"
     inkscape:window-x="-8"
     inkscape:window-y="-8"
     inkscape:window-maximized="1"
     units="px"
     height="793.70079px"
     inkscape:pagecheckerboard="true"
     borderlayer="true"
     inkscape:showpageshadow="true"
     showborder="true"
     showguides="false"
     inkscape:snap-page="true"
     inkscape:snap-global="false"
     inkscape:snap-text-baseline="false"
     inkscape:snap-bbox="true"
     inkscape:bbox-nodes="true" />
  <metadata
     id="metadata5">
    <rdf:RDF>
      <cc:Work
         rdf:about="">
        <dc:format>image/svg+xml</dc:format>
        <dc:type
           rdf:resource="http://purl.org/dc/dcmitype/StillImage" />
        <dc:title />
      </cc:Work>
    </rdf:RDF>
  </metadata>
  <g
     inkscape:label="Layer 1"
     inkscape:groupmode="layer"
     id="layer1">
    <g
       id="g918"
       transform="matrix(1.0460025,0,0,1.0460025,-12.74072,-9.4514556)">
      <path
         id="rect3240"
         style="fill:#db4437;fill-opacity:1;stroke:none;stroke-width:4.00002;stroke-linecap:square"
         d="M -117.0625 -77.074219 C -118.02218 -77.074219 -118.79297 -76.301468 -118.79297 -75.341797 L -118.79297 149.58789 C -118.79297 150.54756 -118.02218 151.32031 -117.0625 151.32031 L -30.861328 151.32031 L -30.861328 475.91211 C -30.861328 512.48753 14.281302 541.93359 70.355469 541.93359 L 698.7832 541.93359 C 754.85752 541.93355 800 512.48749 800 475.91211 L 800 358.24609 A 233.61849 147.93984 2.8422854 0 1 672.91211 316.32227 A 281.07546 183.33648 0 0 1 582.47266 316.4668 A 281.07546 183.33648 0 0 1 488.26953 294.88281 A 281.07546 183.33648 0 0 1 363.9668 199.99023 A 233.61849 147.93984 2.8422854 0 1 191.08203 31.564453 L 191.22461 31.003906 A 233.61849 147.93984 2.8422854 0 1 203.79102 0 L 101.82422 0 L 101.82422 -75.341797 C 101.82422 -76.301468 101.05147 -77.074219 100.0918 -77.074219 L -117.0625 -77.074219 z "
         transform="matrix(0.25294395,0,0,0.25294395,12.180392,9.0357868)" />
      <g
         id="g862"
         transform="translate(-8.6000943,-4.5529911)">
        <path
           d="m 132.78704,29.345505 -1.04875,0.160229 -1.93332,-6.894008 q -3.2545,-0.804424 -5.90357,-0.797269 -6.426,0.01734 -10.08585,4.513058 -3.65988,4.4957 -3.64053,11.657208 0.021,7.659926 4.22957,12.213065 4.20888,4.553139 11.63155,4.533089 4.17034,-0.01134 8.78225,-1.623926 l 0.29185,1.179688 q -5.15739,3.581596 -11.68829,3.599238 -8.47183,0.02291 -13.67901,-5.130914 -5.20721,-5.153796 -5.23003,-13.600702 -0.0242,-8.997792 5.67933,-14.259763 5.70363,-5.26197 14.93603,-5.286911 4.43268,-0.01202 9.07803,1.051024 l 0.18453,0.209362 z"
           style="font-style:normal;font-variant:normal;font-weight:normal;font-stretch:normal;font-size:8.20956px;line-height:0;font-family:Constantia;-inkscape-font-specification:'Constantia, Normal';font-variant-ligatures:normal;font-variant-caps:normal;font-variant-numeric:normal;font-variant-east-asian:normal;fill:#ffffff;fill-opacity:1;stroke:none;stroke-width:0.839279;stroke-miterlimit:4;stroke-dasharray:none;stroke-opacity:1"
           id="path965" />
        <path
           d="m 136.87462,28.898707 q 2.2304,-0.444193 4.46048,-0.984239 l 0.12385,0.1092 q -0.0653,1.287297 -0.0727,3.669866 0.005,2.382532 0.0161,5.381232 2.37804,-1.540017 4.43162,-1.545566 1.903,-0.0051 3.02845,1.059858 1.12553,1.051305 1.13107,3.105212 l 0.0161,4.833523 q 0.003,1.574661 0.0323,2.533077 0.0161,0.355976 0.34353,0.47832 l 1.53461,0.461408 0.0268,0.561329 q -1.80727,-0.03618 -3.14898,-0.03258 -1.34168,0.0038 -2.98445,0.04915 l -0.056,-0.561253 1.35435,-0.400752 q 0.32843,-0.110432 0.3548,-0.425434 0.0161,-0.191738 0.0112,-0.86268 l -0.0161,-5.97002 q -0.003,-1.684201 -0.81425,-2.407733 -0.80972,-0.737224 -2.38418,-0.732971 -1.35536,0.0038 -2.85954,0.664978 l 0.0161,6.148025 q 0.003,1.697896 0.0376,3.108171 0.0161,0.38336 0.34351,0.478321 l 1.42493,0.406935 0.027,0.561327 q -1.72511,-0.03639 -3.0668,-0.03279 -1.34169,0.0038 -3.17609,0.04965 l -0.056,-0.561252 1.5458,-0.456043 q 0.3559,-0.11051 0.36827,-0.439165 0.0216,-1.314573 0.0161,-3.354786 L 138.868,38.06747 q -0.005,-2.793313 -0.0269,-4.94303 -0.005,-2.149755 -0.0484,-3.231368 l -1.84968,-0.54272 z"
           style="font-style:normal;font-variant:normal;font-weight:normal;font-stretch:normal;font-size:8.20956px;line-height:0;font-family:Constantia;-inkscape-font-specification:'Constantia, Normal';font-variant-ligatures:normal;font-variant-caps:normal;font-variant-numeric:normal;font-variant-east-asian:normal;fill:#ffffff;fill-opacity:1;stroke:none;stroke-width:0.438079;stroke-miterlimit:4;stroke-dasharray:none;stroke-opacity:1"
           id="path967" />
        <path
           d="m 156.30981,42.046067 q 0.005,2.560537 0.9696,4.173686 0.96269,1.599457 2.85197,1.594354 1.76612,-0.0047 2.67955,-1.417596 0.92715,-1.426558 0.91962,-4.206176 -0.005,-2.615307 -0.98317,-4.11888 -0.9761,-1.503571 -2.82432,-1.498577 -1.75241,0.0047 -2.6934,1.362863 -0.92727,1.358092 -0.91985,4.110326 z m 10.21282,-0.150828 q 0.005,3.121936 -1.87563,5.057712 -1.87043,1.922045 -4.77285,1.929885 -2.83396,0.0075 -4.59121,-1.795047 -1.74361,-1.816432 -1.75153,-4.746671 -0.005,-3.012394 1.80759,-4.920599 1.82935,-1.921935 4.84125,-1.93007 2.84765,-0.0077 4.59111,1.753966 1.74341,1.747971 1.75127,4.650824 z"
           style="font-style:normal;font-variant:normal;font-weight:normal;font-stretch:normal;font-size:8.20956px;line-height:0;font-family:Constantia;-inkscape-font-specification:'Constantia, Normal';font-variant-ligatures:normal;font-variant-caps:normal;font-variant-numeric:normal;font-variant-east-asian:normal;fill:#ffffff;fill-opacity:1;stroke:none;stroke-width:0.438079;stroke-miterlimit:4;stroke-dasharray:none;stroke-opacity:1"
           id="path969" />
        <path
           d="m 180.96972,38.104387 q 0.1933,0.656733 0.19545,1.478294 l 0.0161,4.888298 q 0.003,1.602043 0.0323,2.574152 0.0269,0.36963 0.35698,0.478283 l 1.38389,0.393351 0.0269,0.561328 q -1.67032,-0.03656 -3.01197,-0.03296 -1.34167,0.0038 -2.98443,0.04915 l -0.056,-0.561253 1.29964,-0.386908 q 0.39683,-0.138001 0.40974,-0.439274 0.0161,-0.191736 0.0112,-0.862676 l -0.0161,-5.970022 q -0.003,-1.684202 -0.77316,-2.407845 -0.7687,-0.737336 -2.27468,-0.733267 -1.32795,0.0034 -2.70856,0.8015 l 0.0161,5.983712 q 0.003,1.711586 0.0377,3.135554 0.0161,0.410743 0.28912,0.464774 l 1.45233,0.420552 0.0269,0.561326 q -1.6978,-0.03649 -3.0395,-0.03285 -1.34162,0.0038 -3.17609,0.04965 l -0.056,-0.561253 1.5731,-0.469809 q 0.34191,-0.09678 0.35482,-0.425434 0.0112,-0.725751 0.0112,-1.68424 l -0.0161,-4.669213 q -0.003,-1.793744 -0.0635,-3.327179 l -1.82212,-0.488017 -0.0694,-0.465365 q 2.2577,-0.444271 4.32362,-0.970177 l 0.13731,0.09547 0.003,1.588354 q 2.24068,-1.690269 4.25319,-1.695706 2.46429,-0.0067 3.5647,1.893671 2.15794,-1.909129 4.69072,-1.915973 1.90292,-0.005 2.97373,1.0737 1.08442,1.06511 1.08987,3.064244 l 0.0161,4.847217 q 0.003,1.72528 0.0323,2.546767 0.0268,0.36963 0.37097,0.478247 l 1.52087,0.461445 0.0268,0.561326 q -1.8073,-0.03618 -3.14894,-0.03258 -1.35536,0.0038 -2.9844,0.04915 l -0.056,-0.561254 1.35429,-0.400749 q 0.31444,-0.110388 0.35482,-0.425437 0.0161,-0.191736 0.0112,-0.862677 l -0.0161,-5.970019 q -0.003,-1.684203 -0.78685,-2.407809 -0.78237,-0.737296 -2.302,-0.733191 -1.53331,0.0043 -2.85863,0.993604 z"
           style="font-style:normal;font-variant:normal;font-weight:normal;font-stretch:normal;font-size:8.20956px;line-height:0;font-family:Constantia;-inkscape-font-specification:'Constantia, Normal';font-variant-ligatures:normal;font-variant-caps:normal;font-variant-numeric:normal;font-variant-east-asian:normal;fill:#ffffff;fill-opacity:1;stroke:none;stroke-width:0.438079;stroke-miterlimit:4;stroke-dasharray:none;stroke-opacity:1"
           id="path971" />
        <path
           d="m 192.4801,36.827248 -0.0694,-0.465366 q 2.29878,-0.444377 4.33729,-0.970213 l 0.13728,0.09548 0.003,1.341884 q 2.09073,-1.443392 4.04848,-1.448681 2.54651,-0.0069 4.04331,1.700677 1.51057,1.693825 1.51795,4.418674 0.0112,3.354714 -1.91607,5.317984 -1.92506,1.949579 -5.47091,1.959157 -1.05417,0.0027 -2.19104,-0.199472 l 0.005,2.998702 q 0.003,1.369269 0.0323,1.916905 0.0268,0.410706 0.37096,0.491939 l 1.79482,0.501784 0.0432,0.56129 q -2.13587,-0.03532 -3.4775,-0.03171 -1.34168,0.0038 -3.17606,0.04965 l -0.056,-0.561254 1.57323,-0.469804 q 0.32842,-0.09674 0.34134,-0.425399 0.0214,-0.999641 0.0214,-3.026162 l -0.0161,-5.572929 q -0.0161,-6.065865 -0.0754,-7.667766 z m 4.43677,10.51778 q 1.19185,0.256945 2.30072,0.25395 2.27266,-0.0062 3.4188,-1.433286 1.14618,-1.427148 1.13903,-4.083533 -0.006,-2.505764 -1.10549,-3.776228 -1.09871,-1.270464 -3.15228,-1.264914 -1.47856,0.0041 -2.62695,0.60958 z"
           style="font-style:normal;font-variant:normal;font-weight:normal;font-stretch:normal;font-size:8.20956px;line-height:0;font-family:Constantia;-inkscape-font-specification:'Constantia, Normal';font-variant-ligatures:normal;font-variant-caps:normal;font-variant-numeric:normal;font-variant-east-asian:normal;fill:#ffffff;fill-opacity:1;stroke:none;stroke-width:0.438079;stroke-miterlimit:4;stroke-dasharray:none;stroke-opacity:1"
           id="path973" />
      </g>
      <text
         xml:space="preserve"
         style="font-style:normal;font-weight:normal;font-size:10.5185px;line-height:1.25;font-family:sans-serif;fill:#000000;fill-opacity:1;stroke:none;stroke-width:0.262962"
         x="69.45446"
         y="57.675915"
         id="text2115"><tspan
           sodipodi:role="line"
           id="tspan2113"
           x="69.45446"
           y="57.675915"
           style="stroke-width:0.262962" /></text>
    </g>
  </g>
</svg>
