<?xml version="1.0" encoding="UTF-8" standalone="no"?>
<svg
   xmlns:osb="http://www.openswatchbook.org/uri/2009/osb"
   xmlns:dc="http://purl.org/dc/elements/1.1/"
   xmlns:cc="http://creativecommons.org/ns#"
   xmlns:rdf="http://www.w3.org/1999/02/22-rdf-syntax-ns#"
   xmlns:svg="http://www.w3.org/2000/svg"
   xmlns="http://www.w3.org/2000/svg"
   xmlns:sodipodi="http://sodipodi.sourceforge.net/DTD/sodipodi-0.dtd"
   xmlns:inkscape="http://www.inkscape.org/namespaces/inkscape"
   id="svg8"
   version="1.1"
   viewBox="0 0 33.86624 33.86624"
   height="128"
   width="128"
   inkscape:version="1.0.1 (3bc2e813f5, 2020-09-07)"
   sodipodi:docname="title.svg">
  <defs
     id="defs2">
    <linearGradient
       id="linearGradient837"
       osb:paint="solid">
      <stop
         style="stop-color:#000000;stop-opacity:1;"
         offset="0"
         id="stop835" />
    </linearGradient>
  </defs>
  <sodipodi:namedview
     id="base"
     pagecolor="#ffffff"
     bordercolor="#666666"
     borderopacity="1.0"
     inkscape:pageopacity="0"
     inkscape:pageshadow="2"
     inkscape:zoom="1.4142136"
     inkscape:cx="218.43955"
     inkscape:cy="50.852645"
     inkscape:document-units="px"
     inkscape:current-layer="g918"
     inkscape:document-rotation="0"
     showgrid="false"
     inkscape:window-width="1920"
     inkscape:window-height="1017"
     inkscape:window-x="-8"
     inkscape:window-y="-8"
     inkscape:window-maximized="1"
     units="px"
     height="793.70079px"
     inkscape:pagecheckerboard="true"
     borderlayer="true"
     inkscape:showpageshadow="true"
     showborder="true"
     showguides="false"
     inkscape:snap-text-baseline="false"
     inkscape:snap-smooth-nodes="true"
     inkscape:snap-intersection-paths="true"
     inkscape:object-paths="true"
     inkscape:snap-page="true"
     inkscape:snap-global="false" />
  <metadata
     id="metadata5">
    <rdf:RDF>
      <cc:Work
         rdf:about="">
        <dc:format>image/svg+xml</dc:format>
        <dc:type
           rdf:resource="http://purl.org/dc/dcmitype/StillImage" />
        <dc:title></dc:title>
      </cc:Work>
    </rdf:RDF>
  </metadata>
  <g
     inkscape:label="Layer 1"
     inkscape:groupmode="layer"
     id="layer1">
    <g
       id="g918"
       transform="matrix(1.0460025,0,0,1.0460025,-12.74072,-9.4514556)">
      <text
         xml:space="preserve"
         style="font-style:normal;font-weight:normal;font-size:10.1178px;line-height:1.25;font-family:sans-serif;fill:#000000;fill-opacity:1;stroke:none;stroke-width:0.252944"
         x="94.387177"
         y="51.656841"
         id="text1434"><tspan
           sodipodi:role="line"
           id="tspan1432"
           x="94.387177"
           y="51.656841"
           style="stroke-width:0.252944" /></text>
      <path
         d="m 92.630126,-28.966926 -0.787498,0.120314 -1.451716,-5.17667 q -2.443766,-0.604037 -4.432927,-0.598664 -4.825242,0.01302 -7.573408,3.388828 -2.748177,3.375793 -2.733647,8.753326 0.01572,5.751793 3.175962,9.170718 3.160425,3.4189256 8.734048,3.4038685 3.131469,-0.00848 6.594507,-1.2193955 l 0.219144,0.885821 q -3.872632,2.6893978 -8.776623,2.7026453 -6.361436,0.0172 -10.271486,-3.8527713 -3.91005,-3.869956 -3.927188,-10.212686 -0.01818,-6.756387 4.264568,-10.70757 4.282824,-3.951182 11.215368,-3.96991 3.328456,-0.009 6.816601,0.789207 l 0.138562,0.157209 z"
         style="font-style:normal;font-variant:normal;font-weight:normal;font-stretch:normal;font-size:8.20956px;line-height:0;font-family:Constantia;-inkscape-font-specification:'Constantia, Normal';font-variant-ligatures:normal;font-variant-caps:normal;font-variant-numeric:normal;font-variant-east-asian:normal;fill:#000000;fill-opacity:1;stroke:none;stroke-width:0.63021;stroke-miterlimit:4;stroke-dasharray:none;stroke-opacity:1"
         id="path965" />
      <path
         d="m 98.44416,-32.79512 q 2.03545,-0.405369 4.0706,-0.89821 l 0.11302,0.09966 q -0.0595,1.174781 -0.0663,3.349098 0.005,2.174284 0.0147,4.91088 2.17018,-1.405411 4.04426,-1.410474 1.73666,-0.0047 2.76374,0.96722 1.02714,0.959415 1.0322,2.833797 l 0.0147,4.411045 q 0.003,1.437026 0.0295,2.31167 0.0147,0.324862 0.31349,0.436512 l 1.40047,0.421079 0.0246,0.512264 q -1.64929,-0.03301 -2.87371,-0.02973 -1.22441,0.0033 -2.72359,0.04486 l -0.0511,-0.512195 1.23596,-0.365723 q 0.29973,-0.100775 0.32381,-0.38825 0.0147,-0.174979 0.01,-0.787276 l -0.0147,-5.448203 q -0.003,-1.536993 -0.74308,-2.197284 -0.73895,-0.672786 -2.17578,-0.668904 -1.23689,0.0033 -2.6096,0.606855 l 0.0147,5.61065 q 0.003,1.549489 0.0344,2.836498 0.0147,0.349851 0.31349,0.436511 l 1.30038,0.371368 0.0246,0.512264 q -1.57431,-0.03322 -2.79873,-0.02992 -1.22441,0.0033 -2.898464,0.04531 l -0.0511,-0.512196 1.410687,-0.416181 q 0.324787,-0.100846 0.336087,-0.400779 0.0197,-1.199672 0.0147,-3.061558 l -0.0147,-5.223283 q -0.005,-2.54916 -0.0246,-4.510979 -0.005,-1.961853 -0.0442,-2.948927 l -1.688062,-0.495279 z"
         style="font-style:normal;font-variant:normal;font-weight:normal;font-stretch:normal;font-size:8.20956px;line-height:0;font-family:Constantia;-inkscape-font-specification:'Constantia, Normal';font-variant-ligatures:normal;font-variant-caps:normal;font-variant-numeric:normal;font-variant-east-asian:normal;fill:#000000;fill-opacity:1;stroke:none;stroke-width:0.39979;stroke-miterlimit:4;stroke-dasharray:none;stroke-opacity:1"
         id="path967" />
      <path
         d="m 116.18054,-20.796918 q 0.005,2.33673 0.88483,3.808881 0.87855,1.459655 2.60268,1.454998 1.61175,-0.0043 2.44533,-1.293691 0.84612,-1.301867 0.83924,-3.83853 -0.005,-2.386714 -0.89722,-3.758864 -0.89078,-1.37215 -2.57746,-1.367593 -1.59922,0.0043 -2.45797,1.24374 -0.84621,1.239387 -0.83943,3.751059 z m 9.32011,-0.137644 q 0.005,2.84906 -1.71169,4.615637 -1.70693,1.754047 -4.35564,1.761202 -2.58626,0.0069 -4.1899,-1.638149 -1.59121,-1.657665 -1.59843,-4.331784 -0.005,-2.749093 1.64958,-4.490509 1.66944,-1.753946 4.41809,-1.761371 2.59874,-0.007 4.1898,1.600661 1.59102,1.595187 1.59819,4.244313 z"
         style="font-style:normal;font-variant:normal;font-weight:normal;font-stretch:normal;font-size:8.20956px;line-height:0;font-family:Constantia;-inkscape-font-specification:'Constantia, Normal';font-variant-ligatures:normal;font-variant-caps:normal;font-variant-numeric:normal;font-variant-east-asian:normal;fill:#000000;fill-opacity:1;stroke:none;stroke-width:0.39979;stroke-miterlimit:4;stroke-dasharray:none;stroke-opacity:1"
         id="path969" />
      <path
         d="m 138.68495,-24.394071 q 0.1764,0.59933 0.17836,1.349082 l 0.0147,4.46103 q 0.003,1.462017 0.0295,2.349157 0.0246,0.337322 0.32577,0.436478 l 1.26294,0.35897 0.0246,0.512264 q -1.52433,-0.03336 -2.7487,-0.03008 -1.22441,0.0033 -2.72359,0.04486 l -0.0511,-0.512195 1.18604,-0.35309 q 0.36213,-0.125939 0.37392,-0.400879 0.0147,-0.174977 0.01,-0.787273 l -0.0147,-5.448204 q -0.003,-1.536992 -0.70559,-2.197384 -0.70151,-0.672888 -2.07584,-0.669175 -1.21188,0.0032 -2.47182,0.731444 l 0.0147,5.460699 q 0.003,1.561984 0.0344,2.861489 0.0147,0.374841 0.26386,0.424149 l 1.32538,0.383794 0.0246,0.512263 q -1.5494,-0.03331 -2.77381,-0.02997 -1.22436,0.0033 -2.89847,0.04531 l -0.0511,-0.512196 1.4356,-0.428744 q 0.31201,-0.08832 0.3238,-0.38825 0.01,-0.662315 0.01,-1.537027 l -0.0147,-4.261095 q -0.003,-1.63696 -0.058,-3.036364 l -1.66286,-0.445361 -0.0634,-0.42469 q 2.06036,-0.405439 3.94569,-0.885377 l 0.1253,0.08713 0.003,1.449522 q 2.04483,-1.542529 3.88142,-1.54749 2.2489,-0.0061 3.25313,1.728152 1.96931,-1.74226 4.28071,-1.748504 1.7366,-0.0047 2.71381,0.979851 0.98965,0.972013 0.99461,2.796411 l 0.0147,4.423541 q 0.003,1.57448 0.0295,2.324165 0.0246,0.337322 0.33854,0.436444 l 1.38794,0.421112 0.0246,0.512264 q -1.64934,-0.03301 -2.8737,-0.02973 -1.2369,0.0033 -2.72355,0.04486 l -0.0511,-0.512196 1.23591,-0.365722 q 0.28696,-0.100739 0.32381,-0.388251 0.0147,-0.174977 0.01,-0.787274 l -0.0147,-5.448203 q -0.003,-1.536994 -0.71807,-2.197351 -0.71399,-0.672853 -2.10079,-0.669107 -1.39929,0.0038 -2.60877,0.906757 z"
         style="font-style:normal;font-variant:normal;font-weight:normal;font-stretch:normal;font-size:8.20956px;line-height:0;font-family:Constantia;-inkscape-font-specification:'Constantia, Normal';font-variant-ligatures:normal;font-variant-caps:normal;font-variant-numeric:normal;font-variant-east-asian:normal;fill:#000000;fill-opacity:1;stroke:none;stroke-width:0.39979;stroke-miterlimit:4;stroke-dasharray:none;stroke-opacity:1"
         id="path971" />
      <path
         d="m 149.18924,-25.559581 -0.0634,-0.42469 q 2.09785,-0.405535 3.95818,-0.88541 l 0.12529,0.08713 0.003,1.224596 q 1.90799,-1.317232 3.69461,-1.322058 2.32392,-0.0063 3.6899,1.552028 1.37855,1.545776 1.38528,4.032456 0.01,3.061491 -1.7486,4.85316 -1.75679,1.779174 -4.99272,1.787915 -0.96203,0.0026 -1.99953,-0.182038 l 0.005,2.736598 q 0.003,1.249587 0.0295,1.749355 0.0246,0.3748088 0.33855,0.4489405 l 1.63794,0.4579252 0.0393,0.5122304 q -1.94917,-0.032238 -3.17353,-0.028941 -1.22442,0.00334 -2.89847,0.045305 l -0.0511,-0.512197 1.4357,-0.4287404 q 0.29973,-0.088281 0.31152,-0.3882167 0.0196,-0.912267 0.0196,-2.761657 l -0.0147,-5.085821 q -0.0147,-5.535673 -0.0688,-6.997557 z m 4.04898,9.598463 q 1.08766,0.234486 2.09962,0.231753 2.07401,-0.0056 3.11997,-1.308008 1.046,-1.302407 1.03947,-3.726607 -0.005,-2.286746 -1.00886,-3.446163 -1.00267,-1.159417 -2.87675,-1.154353 -1.34932,0.0037 -2.39733,0.556299 z"
         style="font-style:normal;font-variant:normal;font-weight:normal;font-stretch:normal;font-size:8.20956px;line-height:0;font-family:Constantia;-inkscape-font-specification:'Constantia, Normal';font-variant-ligatures:normal;font-variant-caps:normal;font-variant-numeric:normal;font-variant-east-asian:normal;fill:#000000;fill-opacity:1;stroke:none;stroke-width:0.39979;stroke-miterlimit:4;stroke-dasharray:none;stroke-opacity:1"
         id="path973" />
      <path
         id="rect1542"
         style="fill:#ff5444;fill-opacity:1;stroke:none;stroke-width:0.659427;stroke-linecap:round;stroke-linejoin:round"
         d="m 16.597954,9.6619599 c -2.100609,0 -3.79171,1.6911041 -3.79171,3.7917111 v 23.54106 c 0,2.100607 1.691101,3.791708 3.79171,3.791708 h 23.541702 c 2.100608,0 3.791709,-1.691101 3.791709,-3.791708 v -6.757849 a 8.8594292,8.3931464 30 0 1 -4.760888,-2.407813 10.529433,10.529433 0 0 1 -3.387939,0.0084 10.529433,10.529433 0 0 1 -3.528969,-1.239647 10.529433,10.529433 0 0 1 -4.656566,-5.449939 8.8594292,8.3931464 30 0 1 -6.476431,-9.673111 l 0.0053,-0.03219 a 8.8594292,8.3931464 30 0 1 0.470742,-1.7805861 z" />
    </g>
  </g>
</svg>
