<?xml version="1.0" encoding="UTF-8" standalone="no"?>
<svg
   xmlns:osb="http://www.openswatchbook.org/uri/2009/osb"
   xmlns:dc="http://purl.org/dc/elements/1.1/"
   xmlns:cc="http://creativecommons.org/ns#"
   xmlns:rdf="http://www.w3.org/1999/02/22-rdf-syntax-ns#"
   xmlns:svg="http://www.w3.org/2000/svg"
   xmlns="http://www.w3.org/2000/svg"
   xmlns:sodipodi="http://sodipodi.sourceforge.net/DTD/sodipodi-0.dtd"
   xmlns:inkscape="http://www.inkscape.org/namespaces/inkscape"
   id="svg8"
   version="1.1"
   viewBox="0 0 33.86624 33.86624"
   height="128"
   width="128"
   inkscape:version="1.0.1 (3bc2e813f5, 2020-09-07)"
   sodipodi:docname="title.svg">
  <defs
     id="defs2">
    <linearGradient
       id="linearGradient837"
       osb:paint="solid">
      <stop
         style="stop-color:#000000;stop-opacity:1;"
         offset="0"
         id="stop835" />
    </linearGradient>
  </defs>
  <sodipodi:namedview
     id="base"
     pagecolor="#ffffff"
     bordercolor="#666666"
     borderopacity="1.0"
     inkscape:pageopacity="0"
     inkscape:pageshadow="2"
     inkscape:zoom="2.0000001"
     inkscape:cx="219.69737"
     inkscape:cy="88.643472"
     inkscape:document-units="px"
     inkscape:current-layer="layer1"
     inkscape:document-rotation="0"
     showgrid="false"
     inkscape:window-width="1920"
     inkscape:window-height="1017"
     inkscape:window-x="-8"
     inkscape:window-y="-8"
     inkscape:window-maximized="1"
     units="px"
     height="793.70079px"
     inkscape:pagecheckerboard="true"
     borderlayer="true"
     inkscape:showpageshadow="true"
     showborder="true"
     showguides="false"
     inkscape:snap-text-baseline="false"
     inkscape:snap-smooth-nodes="true"
     inkscape:snap-intersection-paths="true"
     inkscape:object-paths="true"
     inkscape:snap-page="true"
     inkscape:snap-global="false" />
  <metadata
     id="metadata5">
    <rdf:RDF>
      <cc:Work
         rdf:about="">
        <dc:format>image/svg+xml</dc:format>
        <dc:type
           rdf:resource="http://purl.org/dc/dcmitype/StillImage" />
        <dc:title />
      </cc:Work>
    </rdf:RDF>
  </metadata>
  <g
     inkscape:label="Layer 1"
     inkscape:groupmode="layer"
     id="layer1">
    <text
       xml:space="preserve"
       style="font-style:normal;font-weight:normal;font-size:10.5832px;line-height:1.25;font-family:sans-serif;fill:#000000;fill-opacity:1;stroke:none;stroke-width:0.26458"
       x="85.988503"
       y="44.58173"
       id="text1434"><tspan
         sodipodi:role="line"
         id="tspan1432"
         x="85.988503"
         y="44.58173"
         style="stroke-width:0.26458" /></text>
    <path
       d="m 84.150623,-39.750933 -0.823725,0.125849 -1.518498,-5.41481 q -2.556185,-0.631824 -4.636853,-0.626204 -5.047215,0.01362 -7.921803,3.544723 -2.874601,3.531088 -2.859402,9.156001 0.01644,6.01639 3.322064,9.592594 3.305813,3.576204 9.135836,3.560455 3.275525,-0.0089 6.897871,-1.275491 l 0.229225,0.926571 q -4.050783,2.813117 -9.180369,2.826974 -6.654078,0.01799 -10.744001,-4.030009 -4.089922,-4.047983 -4.107848,-10.682495 -0.01902,-7.067198 4.460749,-11.200145 4.479844,-4.132946 11.731303,-4.152536 3.481573,-0.0094 7.130181,0.825513 l 0.144937,0.164441 z"
       style="font-style:normal;font-variant:normal;font-weight:normal;font-stretch:normal;font-size:8.20956px;line-height:0;font-family:Constantia;-inkscape-font-specification:'Constantia, Normal';font-variant-ligatures:normal;font-variant-caps:normal;font-variant-numeric:normal;font-variant-east-asian:normal;fill:#000000;fill-opacity:1;stroke:none;stroke-width:0.659201;stroke-miterlimit:4;stroke-dasharray:none;stroke-opacity:1"
       id="path965" />
    <path
       d="m 90.232117,-43.755233 q 2.129086,-0.424017 4.257858,-0.93953 l 0.118219,0.104245 q -0.06224,1.228823 -0.06935,3.503164 0.0052,2.274307 0.01538,5.136793 2.270013,-1.470063 4.230306,-1.475359 1.81655,-0.0049 2.89088,1.011714 1.07439,1.003551 1.07968,2.964159 l 0.0154,4.613964 q 0.003,1.503133 0.0309,2.418013 0.0154,0.339806 0.32791,0.456593 l 1.4649,0.440449 0.0257,0.53583 q -1.72516,-0.03453 -3.00591,-0.0311 -1.28073,0.0035 -2.848876,0.04692 l -0.05345,-0.535758 1.292816,-0.382547 q 0.31352,-0.105411 0.3387,-0.40611 0.0154,-0.183029 0.0105,-0.823493 l -0.0154,-5.698834 q -0.003,-1.607698 -0.777262,-2.298364 -0.772944,-0.703736 -2.275871,-0.699676 -1.29379,0.0035 -2.729648,0.634772 l 0.01538,5.868754 q 0.0031,1.620769 0.03598,2.966984 0.01538,0.365945 0.327912,0.456592 l 1.3602,0.388452 0.02573,0.535829 q -1.646732,-0.03475 -2.927479,-0.0313 -1.280736,0.0035 -3.0318,0.04739 l -0.05345,-0.535758 1.475582,-0.435327 q 0.339728,-0.105485 0.351548,-0.419216 0.02061,-1.254859 0.01538,-3.202397 l -0.01538,-5.463567 q -0.0052,-2.666428 -0.02573,-4.718495 -0.0052,-2.052103 -0.04623,-3.084585 l -1.765717,-0.518063 z"
       style="font-style:normal;font-variant:normal;font-weight:normal;font-stretch:normal;font-size:8.20956px;line-height:0;font-family:Constantia;-inkscape-font-specification:'Constantia, Normal';font-variant-ligatures:normal;font-variant-caps:normal;font-variant-numeric:normal;font-variant-east-asian:normal;fill:#000000;fill-opacity:1;stroke:none;stroke-width:0.418181;stroke-miterlimit:4;stroke-dasharray:none;stroke-opacity:1"
       id="path967" />
    <path
       d="m 108.78442,-31.205084 q 0.005,2.444226 0.92553,3.984099 0.91897,1.526803 2.72241,1.521932 1.68589,-0.0045 2.55782,-1.353204 0.88504,-1.361756 0.87785,-4.015112 -0.005,-2.496509 -0.9385,-3.931781 -0.93175,-1.435273 -2.69603,-1.430506 -1.67278,0.0045 -2.57104,1.300955 -0.88514,1.296402 -0.87804,3.923617 z m 9.74885,-0.143976 q 0.005,2.980124 -1.79043,4.827968 -1.78545,1.834738 -4.55601,1.842222 -2.70523,0.0072 -4.38264,-1.713508 -1.66441,-1.733922 -1.67197,-4.531057 -0.005,-2.875558 1.72547,-4.697084 1.74624,-1.834632 4.62133,-1.842398 2.71829,-0.0073 4.38254,1.674295 1.66421,1.66857 1.67171,4.439562 z"
       style="font-style:normal;font-variant:normal;font-weight:normal;font-stretch:normal;font-size:8.20956px;line-height:0;font-family:Constantia;-inkscape-font-specification:'Constantia, Normal';font-variant-ligatures:normal;font-variant-caps:normal;font-variant-numeric:normal;font-variant-east-asian:normal;fill:#000000;fill-opacity:1;stroke:none;stroke-width:0.418181;stroke-miterlimit:4;stroke-dasharray:none;stroke-opacity:1"
       id="path969" />
    <path
       d="m 132.32408,-34.967715 q 0.18452,0.626901 0.18657,1.411143 l 0.0154,4.666249 q 0.003,1.529273 0.0309,2.457224 0.0257,0.35284 0.34076,0.456557 l 1.32104,0.375484 0.0257,0.535829 q -1.59445,-0.0349 -2.87515,-0.03146 -1.28073,0.0035 -2.84888,0.04692 l -0.0534,-0.535757 1.2406,-0.369333 q 0.37879,-0.131733 0.39112,-0.419321 0.0154,-0.183026 0.0105,-0.823489 l -0.0154,-5.698835 q -0.003,-1.607698 -0.73805,-2.29847 -0.73378,-0.703842 -2.17134,-0.699958 -1.26763,0.0033 -2.58553,0.765092 l 0.0154,5.711905 q 0.003,1.633839 0.036,2.993124 0.0154,0.392085 0.276,0.443661 l 1.38635,0.40145 0.0257,0.535828 q -1.62067,-0.03484 -2.90141,-0.03135 -1.28068,0.0035 -3.03181,0.04739 l -0.0534,-0.535758 1.50164,-0.448468 q 0.32637,-0.09238 0.3387,-0.40611 0.0105,-0.692783 0.0105,-1.607734 l -0.0154,-4.457116 q -0.003,-1.712265 -0.0607,-3.176045 l -1.73935,-0.465848 -0.0663,-0.444227 q 2.15514,-0.42409 4.1272,-0.926107 l 0.13107,0.09114 0.003,1.516203 q 2.13889,-1.613489 4.05997,-1.618678 2.35236,-0.0064 3.40278,1.807651 2.05991,-1.822408 4.47764,-1.82894 1.81648,-0.0049 2.83865,1.024927 1.03517,1.016728 1.04036,2.925053 l 0.0154,4.627035 q 0.003,1.64691 0.0309,2.431082 0.0257,0.35284 0.35411,0.456522 l 1.45179,0.440484 0.0257,0.535829 q -1.72521,-0.03453 -3.0059,-0.0311 -1.2938,0.0035 -2.84884,0.04692 l -0.0534,-0.535759 1.29277,-0.382546 q 0.30016,-0.105373 0.3387,-0.406111 0.0154,-0.183027 0.0105,-0.823491 l -0.0154,-5.698834 q -0.003,-1.6077 -0.75111,-2.298435 -0.74683,-0.703806 -2.19743,-0.699887 -1.46366,0.004 -2.72878,0.94847 z"
       style="font-style:normal;font-variant:normal;font-weight:normal;font-stretch:normal;font-size:8.20956px;line-height:0;font-family:Constantia;-inkscape-font-specification:'Constantia, Normal';font-variant-ligatures:normal;font-variant-caps:normal;font-variant-numeric:normal;font-variant-east-asian:normal;fill:#000000;fill-opacity:1;stroke:none;stroke-width:0.418181;stroke-miterlimit:4;stroke-dasharray:none;stroke-opacity:1"
       id="path971" />
    <path
       d="m 143.3116,-36.186841 -0.0663,-0.444227 q 2.19436,-0.424191 4.14027,-0.926141 l 0.13105,0.09114 0.003,1.280931 q 1.99576,-1.377828 3.86457,-1.382876 2.43083,-0.0066 3.85965,1.623425 1.44196,1.616885 1.449,4.217959 0.0105,3.202327 -1.82904,5.076417 -1.83761,1.861021 -5.2224,1.870164 -1.00628,0.0027 -2.09151,-0.190412 l 0.005,2.862488 q 0.003,1.307071 0.0309,1.82983 0.0257,0.392051 0.35412,0.469593 l 1.71329,0.478991 0.0411,0.535794 q -2.03884,-0.03372 -3.31952,-0.03027 -1.28075,0.0035 -3.03181,0.04739 l -0.0534,-0.53576 1.50175,-0.448463 q 0.31352,-0.09234 0.32585,-0.406076 0.0205,-0.954233 0.0205,-2.8887 l -0.0154,-5.319782 q -0.0154,-5.790327 -0.072,-7.319462 z m 4.23524,10.040016 q 1.1377,0.245273 2.19621,0.242414 2.16942,-0.0059 3.2635,-1.368179 1.09411,-1.362321 1.08728,-3.898041 -0.005,-2.391942 -1.05527,-3.604695 -1.04879,-1.212753 -3.00908,-1.207456 -1.4114,0.0039 -2.50762,0.58189 z"
       style="font-style:normal;font-variant:normal;font-weight:normal;font-stretch:normal;font-size:8.20956px;line-height:0;font-family:Constantia;-inkscape-font-specification:'Constantia, Normal';font-variant-ligatures:normal;font-variant-caps:normal;font-variant-numeric:normal;font-variant-east-asian:normal;fill:#000000;fill-opacity:1;stroke:none;stroke-width:0.418181;stroke-miterlimit:4;stroke-dasharray:none;stroke-opacity:1"
       id="path973" />
    <path
       id="rect1542"
       style="fill:#ff5444;fill-opacity:1;stroke:none;stroke-width:1.29195;stroke-linecap:round;stroke-linejoin:round;stroke-miterlimit:4;stroke-dasharray:none;stroke-opacity:1"
       d="m 4.9092406,1.5655118 c -2.1457632,0 -3.8732165,1.7274564 -3.8732165,3.8732186 V 29.485833 c 0,2.145762 1.7274533,3.873215 3.8732165,3.873215 H 28.956999 c 2.145763,0 3.873217,-1.727453 3.873217,-3.873215 v -6.903117 a 9.0498732,8.573567 30 0 1 -4.863229,-2.459571 10.755776,10.755776 0 0 1 -3.460767,0.0086 10.755776,10.755776 0 0 1 -3.604828,-1.266295 10.755776,10.755776 0 0 1 -4.756664,-5.567092 9.0498732,8.573567 30 0 1 -6.61565,-9.8810452 l 0.00544,-0.032886 a 9.0498732,8.573567 30 0 1 0.480836,-1.818854 z" />
  </g>
</svg>
